
<svg xmlns="http://www.w3.org/2000/svg" viewBox="0 0 120 90" style="enable-background:new 0 0 120 90;" xml:space="preserve">
<style type="text/css">
  .st0{fill:#00005B;}
  .st1{fill:#9999FF;}
</style>
<rect class="st0" x="14.3" y="0" width="91.4" height="90" rx="16.3" ry="16.3"/>
<g>
  <path class="st1" d="M35.1,63.1V23.5c0-0.3,0.1-0.4,0.4-0.4c0.7,0,1.3,0,2.2,0c0.9,0,1.9,0,2.9-0.1c1,0,2.2,0,3.3-0.1
    c1.2,0,2.3,0,3.5,0c3.2,0,5.8,0.4,7.9,1.2c1.9,0.7,3.7,1.7,5.2,3.2c1.2,1.2,2.2,2.7,2.8,4.4c0.6,1.6,0.9,3.3,0.9,5
    c0,3.3-0.8,6-2.3,8.2c-1.5,2.2-3.7,3.8-6.2,4.7c-2.6,1-5.5,1.3-8.7,1.3c-0.9,0-1.5,0-1.9,0c-0.4,0-0.9,0-1.7,0v12.3
    c0,0.3-0.2,0.5-0.4,0.5h-7.5C35.3,63.6,35.1,63.5,35.1,63.1L35.1,63.1z M43.5,30.5v12.9c0.5,0,1,0.1,1.5,0.1h2
    c1.5,0,3-0.2,4.4-0.7c1.2-0.3,2.3-1.1,3.2-2c0.8-1,1.2-2.3,1.2-4c0-1.2-0.3-2.4-0.9-3.4c-0.7-1-1.6-1.8-2.7-2.2
    c-1.4-0.6-3-0.8-4.5-0.8c-1,0-1.9,0-2.6,0C44.3,30.5,43.8,30.5,43.5,30.5L43.5,30.5z"/>
  <path class="st1" d="M69.2,63.1V42.2c0-0.3,0.1-0.4,0.4-0.4h7.5c0.3,0,0.4,0.1,0.4,0.4v2.5c0.8-1,1.8-1.8,3-2.4
    c1.2-0.6,2.5-0.9,3.8-0.9c0.4,0,0.7,0,1.1,0.1c0.3,0,0.6,0.1,0.8,0.1c0.2,0,0.3,0.2,0.3,0.4v7.2c0,0.3-0.1,0.4-0.3,0.4
    c-0.4-0.1-0.8-0.2-1.2-0.2c-0.5-0.1-1-0.1-1.5-0.1c-1.3,0-2.5,0.3-3.6,0.9c-1,0.6-1.8,1.4-2.4,2.4v11.1c0,0.3-0.1,0.4-0.4,0.4
    h-7.5C69.3,63.6,69.2,63.5,69.2,63.1z"/>
</g>
</svg>
