
<svg xmlns="http://www.w3.org/2000/svg" viewBox="0 0 120 90" style="enable-background:new 0 0 120 90;" xml:space="preserve">
<style type="text/css">
  .st0{fill:#00005B;}
  .st1{fill:#9999FF;}
</style>
<rect class="st0" x="14.3" y="0" width="91.4" height="90" rx="16.3" ry="16.3"/>
<g>
  <path class="st1" d="M58.9,53.8H44.6l-2.9,9c-0.1,0.3-0.4,0.6-0.7,0.5h-7.2c-0.4,0-0.5-0.2-0.4-0.7l12.4-35.7
    c0.1-0.4,0.2-0.8,0.4-1.3c0.2-0.8,0.2-1.7,0.2-2.5c0-0.2,0.1-0.4,0.3-0.4h10c0.3,0,0.5,0.1,0.5,0.3l14,39.6c0.1,0.4,0,0.6-0.4,0.6
    h-8c-0.3,0-0.5-0.2-0.6-0.4L58.9,53.8z M46.9,46h9.8c-0.2-0.8-0.5-1.8-0.9-2.8c-0.3-1-0.7-2.2-1-3.3c-0.4-1.2-0.7-2.3-1.1-3.5
    c-0.4-1.2-0.7-2.3-1-3.4c-0.3-1.1-0.6-2.1-0.8-3h-0.1c-0.3,1.7-0.8,3.3-1.3,5c-0.6,1.8-1.2,3.8-1.8,5.7C48,42.6,47.4,44.4,46.9,46
    L46.9,46z"/>
  <path class="st1" d="M72.2,51.8c0,1.8,0.1,3.4,0.3,4.8c0.2,1.3,0.6,2.4,1.1,3.3c0.5,0.8,1.2,1.4,2.1,1.8c0.9,0.4,2,0.6,3.3,0.6
    c1.2,0,2.3-0.2,3.3-0.5c1-0.3,1.9-0.7,2.7-1.2c0.2-0.1,0.4-0.1,0.5,0c0.1,0.1,0.2,0.2,0.2,0.4v6.2c0,0.3-0.1,0.5-0.3,0.6
    c-0.9,0.4-1.9,0.7-3,0.9c-1.1,0.2-2.3,0.3-3.6,0.3c-2.1,0-4-0.3-5.6-1c-1.6-0.7-3-1.7-4.1-3c-1.1-1.3-1.9-2.9-2.5-4.8
    c-0.6-1.9-0.9-4.1-0.9-6.5V43.7c0-2.4,0.3-4.5,0.9-6.4c0.6-1.9,1.4-3.5,2.5-4.8c1.1-1.3,2.4-2.3,4-3c1.6-0.7,3.4-1,5.4-1
    c1.9,0,3.6,0.3,5.1,0.9c1.5,0.6,2.7,1.5,3.7,2.6c1,1.1,1.7,2.5,2.2,4.1c0.5,1.6,0.8,3.4,0.8,5.4v7.3c0,0.2-0.1,0.4-0.3,0.4
    L72.2,51.8z M79.8,35.1c-0.7,0-1.3,0.1-1.8,0.4c-0.5,0.3-0.9,0.7-1.2,1.2c-0.3,0.5-0.5,1.1-0.7,1.8c-0.1,0.7-0.2,1.4-0.2,2.2v3.2
    h7.4v-3.2c0-0.8-0.1-1.5-0.2-2.2c-0.1-0.7-0.3-1.3-0.6-1.8c-0.3-0.5-0.7-0.9-1.2-1.2C81.1,35.2,80.5,35.1,79.8,35.1z"/>
</g>
</svg>
